<svg xmlns="http://www.w3.org/2000/svg" width="400" height="300" viewBox="0 0 400 300">
  <defs>
    <linearGradient id="bg" x1="0%" y1="0%" x2="100%" y2="100%">
      <stop offset="0%" style="stop-color:#1a1a2e"/>
      <stop offset="100%" style="stop-color:#16213e"/>
    </linearGradient>
    <linearGradient id="accent" x1="0%" y1="0%" x2="100%" y2="100%">
      <stop offset="0%" style="stop-color:#667eea"/>
      <stop offset="100%" style="stop-color:#764ba2"/>
    </linearGradient>
  </defs>
  <rect width="400" height="300" fill="url(#bg)"/>
  
  <!-- Card grid -->
  <g transform="translate(80, 50)">
    <rect x="0" y="0" width="50" height="60" rx="8" fill="url(#accent)" opacity="0.9"/>
    <text x="25" y="38" text-anchor="middle" fill="white" font-size="24">?</text>
    
    <rect x="60" y="0" width="50" height="60" rx="8" fill="url(#accent)" opacity="0.9"/>
    <text x="85" y="38" text-anchor="middle" fill="white" font-size="24">?</text>
    
    <rect x="120" y="0" width="50" height="60" rx="8" fill="url(#accent)" opacity="0.9"/>
    <text x="145" y="38" text-anchor="middle" fill="white" font-size="24">?</text>
    
    <rect x="180" y="0" width="50" height="60" rx="8" fill="url(#accent)" opacity="0.9"/>
    <text x="205" y="38" text-anchor="middle" fill="white" font-size="24">?</text>
    
    <rect x="0" y="70" width="50" height="60" rx="8" fill="#232526"/>
    <text x="25" y="108" text-anchor="middle" fill="white" font-size="24">🎮</text>
    
    <rect x="60" y="70" width="50" height="60" rx="8" fill="url(#accent)" opacity="0.9"/>
    <text x="85" y="108" text-anchor="middle" fill="white" font-size="24">?</text>
    
    <rect x="120" y="70" width="50" height="60" rx="8" fill="#232526"/>
    <text x="145" y="108" text-anchor="middle" fill="white" font-size="24">🎲</text>
    
    <rect x="180" y="70" width="50" height="60" rx="8" fill="url(#accent)" opacity="0.9"/>
    <text x="205" y="108" text-anchor="middle" fill="white" font-size="24">?</text>
    
    <rect x="0" y="140" width="50" height="60" rx="8" fill="url(#accent)" opacity="0.9"/>
    <text x="25" y="178" text-anchor="middle" fill="white" font-size="24">?</text>
    
    <rect x="60" y="140" width="50" height="60" rx="8" fill="#232526"/>
    <text x="85" y="178" text-anchor="middle" fill="white" font-size="24">🎮</text>
    
    <rect x="120" y="140" width="50" height="60" rx="8" fill="url(#accent)" opacity="0.9"/>
    <text x="145" y="178" text-anchor="middle" fill="white" font-size="24">?</text>
    
    <rect x="180" y="140" width="50" height="60" rx="8" fill="#232526"/>
    <text x="205" y="178" text-anchor="middle" fill="white" font-size="24">🎲</text>
  </g>
  
  <!-- Title -->
  <text x="200" y="280" text-anchor="middle" fill="#667eea" font-family="Poppins, sans-serif" font-size="18" font-weight="600">MEMORY MATCH</text>
</svg>
