<svg xmlns="http://www.w3.org/2000/svg" width="400" height="300" viewBox="0 0 400 300">
  <defs>
    <linearGradient id="bg" x1="0%" y1="0%" x2="100%" y2="100%">
      <stop offset="0%" style="stop-color:#1a1a2e"/>
      <stop offset="100%" style="stop-color:#16213e"/>
    </linearGradient>
    <linearGradient id="accent" x1="0%" y1="0%" x2="100%" y2="100%">
      <stop offset="0%" style="stop-color:#f093fb"/>
      <stop offset="100%" style="stop-color:#f5576c"/>
    </linearGradient>
    <linearGradient id="cell" x1="0%" y1="0%" x2="100%" y2="100%">
      <stop offset="0%" style="stop-color:#667eea"/>
      <stop offset="100%" style="stop-color:#764ba2"/>
    </linearGradient>
  </defs>
  <rect width="400" height="300" fill="url(#bg)"/>
  
  <!-- Grid -->
  <g transform="translate(100, 40)">
    <!-- Row 1 -->
    <rect x="0" y="0" width="35" height="35" rx="5" fill="url(#cell)"/>
    <rect x="40" y="0" width="35" height="35" rx="5" fill="url(#cell)"/>
    <rect x="80" y="0" width="35" height="35" rx="5" fill="#232526"/>
    <text x="97" y="24" text-anchor="middle" fill="#4fc3f7" font-size="14" font-weight="bold">1</text>
    <rect x="120" y="0" width="35" height="35" rx="5" fill="url(#cell)"/>
    <rect x="160" y="0" width="35" height="35" rx="5" fill="url(#cell)"/>
    
    <!-- Row 2 -->
    <rect x="0" y="40" width="35" height="35" rx="5" fill="#232526"/>
    <text x="17" y="64" text-anchor="middle" fill="#81c784" font-size="14" font-weight="bold">2</text>
    <rect x="40" y="40" width="35" height="35" rx="5" fill="url(#cell)"/>
    <rect x="80" y="40" width="35" height="35" rx="5" fill="url(#accent)"/>
    <text x="97" y="64" text-anchor="middle" fill="white" font-size="16">💣</text>
    <rect x="120" y="40" width="35" height="35" rx="5" fill="#232526"/>
    <text x="137" y="64" text-anchor="middle" fill="#ffb74d" font-size="14" font-weight="bold">3</text>
    <rect x="160" y="40" width="35" height="35" rx="5" fill="url(#cell)"/>
    
    <!-- Row 3 -->
    <rect x="0" y="80" width="35" height="35" rx="5" fill="url(#cell)"/>
    <rect x="40" y="80" width="35" height="35" rx="5" fill="#232526"/>
    <text x="57" y="104" text-anchor="middle" fill="#4fc3f7" font-size="14" font-weight="bold">1</text>
    <rect x="80" y="80" width="35" height="35" rx="5" fill="#232526"/>
    <text x="97" y="104" text-anchor="middle" fill="#81c784" font-size="14" font-weight="bold">2</text>
    <rect x="120" y="80" width="35" height="35" rx="5" fill="url(#cell)"/>
    <rect x="160" y="80" width="35" height="35" rx="5" fill="#232526"/>
    <text x="177" y="104" text-anchor="middle" fill="#4fc3f7" font-size="14" font-weight="bold">1</text>
    
    <!-- Row 4 -->
    <rect x="0" y="120" width="35" height="35" rx="5" fill="url(#cell)"/>
    <rect x="40" y="120" width="35" height="35" rx="5" fill="url(#cell)"/>
    <rect x="80" y="120" width="35" height="35" rx="5" fill="url(#cell)"/>
    <text x="97" y="144" text-anchor="middle" fill="white" font-size="16">🚩</text>
    <rect x="120" y="120" width="35" height="35" rx="5" fill="url(#cell)"/>
    <rect x="160" y="120" width="35" height="35" rx="5" fill="url(#cell)"/>
    
    <!-- Row 5 -->
    <rect x="0" y="160" width="35" height="35" rx="5" fill="url(#cell)"/>
    <rect x="40" y="160" width="35" height="35" rx="5" fill="url(#cell)"/>
    <rect x="80" y="160" width="35" height="35" rx="5" fill="url(#cell)"/>
    <rect x="120" y="160" width="35" height="35" rx="5" fill="url(#cell)"/>
    <rect x="160" y="160" width="35" height="35" rx="5" fill="url(#cell)"/>
  </g>
  
  <!-- Gems decoration -->
  <text x="60" y="150" font-size="24">💎</text>
  <text x="340" y="100" font-size="24">💎</text>
  
  <!-- Title -->
  <text x="200" y="280" text-anchor="middle" fill="#f093fb" font-family="Poppins, sans-serif" font-size="18" font-weight="600">GEM SWEEPER</text>
</svg>
